<svg width="1440" height="1114" viewBox="0 0 1440 1114" fill="none" xmlns="http://www.w3.org/2000/svg">
<line x1="-18.0771" y1="665.64" x2="1493.5" y2="665.64" stroke="#2F5B90" stroke-width="1.2607"/>
<line x1="-18.0771" y1="988.378" x2="1493.5" y2="988.378" stroke="#2F5B90" stroke-width="1.2607"/>
<line x1="-18.0771" y1="342.902" x2="1493.5" y2="342.902" stroke="#2F5B90" stroke-width="1.2607"/>
<line x1="-18.0771" y1="20.1614" x2="1493.5" y2="20.1614" stroke="#2F5B90" stroke-width="1.2607"/>
<line x1="-18.0771" y1="504.27" x2="1493.5" y2="504.27" stroke="#2F5B90" stroke-width="1.2607"/>
<line x1="-18.0771" y1="827.008" x2="1493.5" y2="827.008" stroke="#2F5B90" stroke-width="1.2607"/>
<line x1="-18.0771" y1="181.532" x2="1493.5" y2="181.532" stroke="#2F5B90" stroke-width="1.2607"/>
<line x1="-18.0771" y1="584.955" x2="1493.5" y2="584.955" stroke="#2F5B90" stroke-width="1.2607"/>
<line x1="-18.0771" y1="907.693" x2="1493.5" y2="907.693" stroke="#2F5B90" stroke-width="1.2607"/>
<line x1="-18.0771" y1="262.217" x2="1493.5" y2="262.217" stroke="#2F5B90" stroke-width="1.2607"/>
<line x1="-18.0771" y1="1069.06" x2="1493.5" y2="1069.06" stroke="#2F5B90" stroke-width="1.2607"/>
<line x1="-18.0771" y1="423.585" x2="1493.5" y2="423.585" stroke="#2F5B90" stroke-width="1.2607"/>
<line x1="-18.0771" y1="746.325" x2="1493.5" y2="746.325" stroke="#2F5B90" stroke-width="1.2607"/>
<line x1="-18.0771" y1="100.847" x2="1493.5" y2="100.847" stroke="#2F5B90" stroke-width="1.2607"/>
<line x1="29.1981" y1="-8.20294" x2="29.1981" y2="1159.2" stroke="#2F5B90" stroke-width="1.2607"/>
<line x1="674.679" y1="-8.20293" x2="674.679" y2="1159.2" stroke="#2F5B90" stroke-width="1.2607"/>
<line x1="351.939" y1="-8.20312" x2="351.938" y2="1159.2" stroke="#2F5B90" stroke-width="1.2607"/>
<line x1="997.415" y1="-8.20293" x2="997.415" y2="1159.2" stroke="#2F5B90" stroke-width="1.2607"/>
<line x1="1320.16" y1="-8.20293" x2="1320.16" y2="1159.2" stroke="#2F5B90" stroke-width="1.2607"/>
<line x1="190.568" y1="-8.20293" x2="190.568" y2="1159.2" stroke="#2F5B90" stroke-width="1.2607"/>
<line x1="836.045" y1="-8.20293" x2="836.045" y2="1159.2" stroke="#2F5B90" stroke-width="1.2607"/>
<line x1="513.309" y1="-8.20293" x2="513.309" y2="1159.2" stroke="#2F5B90" stroke-width="1.2607"/>
<line x1="1158.79" y1="-8.20312" x2="1158.79" y2="1159.2" stroke="#2F5B90" stroke-width="1.2607"/>
<line x1="109.885" y1="-8.20293" x2="109.885" y2="1159.2" stroke="#2F5B90" stroke-width="1.2607"/>
<line x1="755.362" y1="-8.20312" x2="755.362" y2="1159.2" stroke="#2F5B90" stroke-width="1.2607"/>
<line x1="432.621" y1="-8.20293" x2="432.621" y2="1159.2" stroke="#2F5B90" stroke-width="1.2607"/>
<line x1="1078.1" y1="-8.20293" x2="1078.1" y2="1159.2" stroke="#2F5B90" stroke-width="1.2607"/>
<line x1="1400.84" y1="-8.20293" x2="1400.84" y2="1159.2" stroke="#2F5B90" stroke-width="1.2607"/>
<line x1="271.256" y1="-8.20293" x2="271.256" y2="1159.2" stroke="#2F5B90" stroke-width="1.2607"/>
<line x1="916.732" y1="-8.20293" x2="916.732" y2="1159.2" stroke="#2F5B90" stroke-width="1.2607"/>
<line x1="593.992" y1="-8.20293" x2="593.992" y2="1159.2" stroke="#2F5B90" stroke-width="1.2607"/>
<line x1="1239.47" y1="-8.20293" x2="1239.47" y2="1159.2" stroke="#2F5B90" stroke-width="1.2607"/>
</svg>
