<svg width="209" height="43" viewBox="0 0 209 43" fill="none" xmlns="http://www.w3.org/2000/svg">
<g clip-path="url(#clip0_655_463)">
<path fill-rule="evenodd" clip-rule="evenodd" d="M49.8777 16.6069L53.7731 20.3981L33.124 41.0157L33.1791 27.381L39.0693 27.3838L49.8777 16.6069Z" fill="white"/>
<path fill-rule="evenodd" clip-rule="evenodd" d="M33.1602 14.8013L47.9862 14.7793L33.1602 0V14.8013Z" fill="white"/>
<path fill-rule="evenodd" clip-rule="evenodd" d="M3.8955 25.5216L0 21.7304L20.6491 1.11279L20.594 14.7475L14.7039 14.7447L3.8955 25.5216Z" fill="white"/>
<path fill-rule="evenodd" clip-rule="evenodd" d="M20.6122 27.3276L5.78613 27.3496L20.6122 42.1288V27.3276Z" fill="white"/>
<path d="M68.533 11.1087C67.1227 11.2206 66.1356 11.595 65.5764 12.2175C65.0171 12.8448 64.7399 13.9778 64.7399 15.6068V23.5965H61.0928V7.92834H64.5114V9.7373C65.0609 9.0322 65.6639 8.51675 66.3155 8.18606C66.972 7.86026 67.7112 7.69492 68.533 7.69492V11.1087V11.1087ZM81.4828 14.0264C81.1716 12.9809 80.6463 12.1834 79.9121 11.6388C79.1778 11.0892 78.249 10.8169 77.1305 10.8169C76.1628 10.8169 75.2924 11.1135 74.524 11.7019C73.7557 12.2904 73.2402 13.0635 72.9728 14.0264H81.4828ZM72.8463 16.9149C72.9679 18.0431 73.4201 18.9379 74.1933 19.5846C74.9617 20.2362 75.9634 20.562 77.184 20.562C78.0009 20.562 78.7352 20.3919 79.3869 20.0466C80.0337 19.7062 80.5491 19.2248 80.9284 18.6072H84.8673C84.2011 20.314 83.2091 21.6416 81.8815 22.5898C80.5588 23.5332 79.027 24.0049 77.2861 24.0049C76.119 24.0049 75.0443 23.8007 74.062 23.3873C73.0798 22.974 72.1995 22.3612 71.4167 21.554C70.6775 20.7857 70.1037 19.8957 69.6952 18.8843C69.2867 17.8777 69.0825 16.837 69.0825 15.777C69.0825 14.6828 69.2721 13.6568 69.6466 12.6939C70.021 11.7311 70.5754 10.8655 71.3048 10.0971C72.1023 9.25098 73.0068 8.59937 74.0134 8.14712C75.02 7.68998 76.0558 7.46144 77.1305 7.46144C78.4872 7.46144 79.7565 7.76782 80.9332 8.38537C82.1101 9.00296 83.1118 9.87341 83.9385 10.9919C84.4442 11.6678 84.8138 12.4215 85.057 13.258C85.3001 14.0895 85.4217 15.0475 85.4217 16.1319C85.4217 16.2146 85.4168 16.3458 85.4071 16.5209C85.3974 16.7009 85.3925 16.8273 85.3925 16.9148H72.8463L72.8463 16.9149ZM99.7088 15.8257C99.7088 14.4884 99.2808 13.3699 98.4347 12.4751C97.5836 11.5852 96.5187 11.1378 95.2495 11.1378C93.9949 11.1378 92.925 11.595 92.0351 12.5043C91.1452 13.4185 90.7027 14.5078 90.7027 15.7673C90.7027 17.09 91.1501 18.189 92.04 19.0692C92.9347 19.9494 94.0629 20.387 95.4196 20.387C96.6159 20.387 97.6274 19.9445 98.4589 19.0594C99.2905 18.1792 99.7086 17.0997 99.7086 15.8256L99.7088 15.8257ZM99.8644 9.1733V2.85156H103.453V23.5965H99.8644V22.3127C99.1447 22.8817 98.3861 23.3048 97.5886 23.5868C96.791 23.864 95.9255 24.005 94.9967 24.005C94.0095 24.005 93.0807 23.8494 92.2054 23.5333C91.33 23.2221 90.5472 22.765 89.8566 22.1669C88.9084 21.3499 88.1789 20.3822 87.6732 19.2686C87.1625 18.1501 86.9097 16.9684 86.9097 15.7139C86.9097 14.5565 87.1431 13.4429 87.6148 12.378C88.0816 11.313 88.7479 10.3939 89.5989 9.61584C90.3137 8.93993 91.1307 8.42931 92.0497 8.07432C92.9688 7.72421 93.9511 7.5491 94.9966 7.5491C96.0032 7.5491 96.8931 7.68038 97.6712 7.94299C98.4493 8.20071 99.1835 8.61407 99.8643 9.1733H99.8644ZM118.499 15.8257C118.499 14.4884 118.071 13.3699 117.225 12.4751C116.374 11.5852 115.309 11.1378 114.04 11.1378C112.785 11.1378 111.715 11.595 110.825 12.5043C109.935 13.4185 109.493 14.5078 109.493 15.7673C109.493 17.09 109.94 18.189 110.83 19.0692C111.725 19.9494 112.853 20.387 114.21 20.387C115.406 20.387 116.417 19.9445 117.249 19.0594C118.081 18.1792 118.499 17.0997 118.499 15.8256L118.499 15.8257ZM118.654 9.1733V2.85156H122.243V23.5965H118.654V22.3127C117.935 22.8817 117.176 23.3048 116.379 23.5868C115.581 23.864 114.716 24.005 113.787 24.005C112.8 24.005 111.871 23.8494 110.995 23.5333C110.12 23.2221 109.337 22.765 108.647 22.1669C107.698 21.3499 106.969 20.3822 106.463 19.2686C105.953 18.1501 105.7 16.9684 105.7 15.7139C105.7 14.5565 105.933 13.4429 106.405 12.378C106.872 11.313 107.538 10.3939 108.389 9.61584C109.104 8.93993 109.921 8.42931 110.84 8.07432C111.759 7.72421 112.741 7.5491 113.787 7.5491C114.793 7.5491 115.683 7.68038 116.461 7.94299C117.239 8.20071 117.974 8.61407 118.654 9.1733H118.654ZM128.837 6.32367H125.278V2.85156H128.837V6.32367ZM125.278 23.5965V7.92839H128.837V23.5965H125.278ZM135.675 7.92839V9.70334C136.205 8.99336 136.817 8.46332 137.503 8.12292C138.193 7.77764 138.976 7.60747 139.861 7.60747C140.99 7.60747 141.977 7.82142 142.818 8.24937C143.659 8.67732 144.36 9.31922 144.919 10.1702C145.279 10.744 145.536 11.3907 145.697 12.1153C145.852 12.8447 145.93 13.9048 145.93 15.3005V23.5965H142.283V16.6524C142.283 14.5565 142.04 13.1171 141.559 12.3342C141.072 11.5561 140.236 11.1671 139.049 11.1671C137.834 11.1671 136.958 11.5951 136.428 12.4558C135.898 13.3165 135.631 14.7899 135.631 16.881V23.5966H132.1V7.92845H135.674L135.675 7.92839ZM161.511 7.92839H164.779V20.9998C164.779 23.7181 164.054 25.8529 162.605 27.3993C161.156 28.9505 159.167 29.7238 156.638 29.7238C154.747 29.7238 153.161 29.2812 151.892 28.3913C150.618 27.5063 149.68 26.1884 149.081 24.4427H152.612C152.991 25.143 153.531 25.6925 154.236 26.0912C154.936 26.49 155.719 26.6894 156.585 26.6894C158.039 26.6894 159.216 26.2177 160.125 25.2694C161.029 24.326 161.482 23.0763 161.482 21.525V21.3693C160.781 22.1036 159.979 22.658 159.075 23.0324C158.175 23.4069 157.183 23.5965 156.113 23.5965C155.068 23.5965 154.076 23.4166 153.142 23.0568C152.203 22.6921 151.377 22.1766 150.657 21.5007C149.879 20.7615 149.266 19.8765 148.819 18.8504C148.371 17.8243 148.148 16.7788 148.148 15.7139C148.148 13.3408 148.897 11.381 150.399 9.83467C151.897 8.29315 153.803 7.51997 156.113 7.51997C157.163 7.51997 158.136 7.70473 159.026 8.0792C159.911 8.44878 160.743 9.0226 161.511 9.79089V7.92845V7.92839ZM151.766 15.4853C151.766 16.8517 152.223 17.9994 153.142 18.9184C154.056 19.8375 155.184 20.2995 156.526 20.2995C157.752 20.2995 158.831 19.8326 159.765 18.9038C160.699 17.975 161.171 16.8906 161.171 15.6603C161.171 14.3182 160.709 13.1803 159.785 12.232C158.866 11.2886 157.767 10.8169 156.497 10.8169C155.184 10.8169 154.071 11.2692 153.147 12.1688C152.228 13.0733 151.766 14.1772 151.766 15.4853ZM169.009 23.5965V11.1671H166.617V7.92839H169.009V2.85156H172.657V7.92839H175.078V11.1671H172.657V23.5965H169.009ZM179.635 15.6604C179.635 17.1143 180.034 18.262 180.831 19.113C181.629 19.964 182.708 20.3871 184.079 20.3871C185.426 20.3871 186.501 19.9543 187.303 19.0839C188.106 18.2183 188.505 17.0463 188.505 15.5778C188.505 14.2551 188.086 13.1755 187.245 12.3245C186.404 11.4735 185.349 11.0504 184.079 11.0504C182.766 11.0504 181.701 11.4783 180.875 12.3391C180.048 13.1949 179.635 14.3037 179.635 15.6604V15.6604ZM175.871 15.6896C175.871 14.5906 176.075 13.545 176.479 12.553C176.882 11.561 177.466 10.6808 178.234 9.91246C179.022 9.12469 179.912 8.51681 180.899 8.09374C181.886 7.67067 182.912 7.46155 183.977 7.46155C185.105 7.46155 186.151 7.65119 187.104 8.02566C188.057 8.40012 188.937 8.95935 189.735 9.71305C190.552 10.5008 191.179 11.4053 191.626 12.4362C192.074 13.4671 192.298 14.5224 192.298 15.6068C192.298 16.8031 192.103 17.8924 191.714 18.8795C191.325 19.8667 190.741 20.7566 189.963 21.5541C189.18 22.3613 188.295 22.9741 187.299 23.3874C186.302 23.8008 185.217 24.005 184.05 24.005C182.873 24.005 181.799 23.7959 180.831 23.3777C179.858 22.9595 178.978 22.3322 178.181 21.5007C177.417 20.6837 176.843 19.7841 176.454 18.8018C176.065 17.8195 175.871 16.7837 175.871 15.6896H175.871ZM198.172 7.92845V9.7034C198.702 8.99342 199.315 8.46337 200 8.12297C200.691 7.77769 201.474 7.60752 202.359 7.60752C203.487 7.60752 204.474 7.82147 205.316 8.24942C206.157 8.67737 206.857 9.31927 207.416 10.1702C207.776 10.7441 208.034 11.3908 208.194 12.1154C208.35 12.8448 208.428 13.9049 208.428 15.3006V23.5966H204.781V16.6524C204.781 14.5566 204.537 13.1171 204.056 12.3342C203.57 11.5562 202.733 11.1672 201.547 11.1672C200.331 11.1672 199.456 11.5951 198.926 12.4558C198.396 13.3165 198.128 14.79 198.128 16.881V23.5967H194.598V7.9285H198.172L198.172 7.92845Z" fill="white"/>
<path d="M66.6089 39.1655V31.3173H68.0664V39.1655H66.6089ZM61.0928 39.1655V31.3173H62.5503V39.1655H61.0928ZM62.4269 35.802V34.5574H66.721V35.802H62.4269ZM86.686 39.2776C86.0731 39.2776 85.5088 39.1767 84.9931 38.9749C84.4773 38.7731 84.0288 38.4909 83.6476 38.1284C83.2665 37.7659 82.9712 37.3398 82.7619 36.8503C82.5526 36.3607 82.4479 35.8244 82.4479 35.2413C82.4479 34.6584 82.5526 34.122 82.7619 33.6324C82.9712 33.1428 83.2664 32.7168 83.6476 32.3543C84.0288 31.9918 84.4773 31.7096 84.9931 31.5078C85.5088 31.306 86.0694 31.2051 86.6748 31.2051C87.2878 31.2051 87.8502 31.306 88.3622 31.5078C88.8742 31.7096 89.3208 31.9918 89.702 32.3543C90.0833 32.7168 90.3785 33.1428 90.5878 33.6324C90.797 34.122 90.9017 34.6583 90.9017 35.2413C90.9017 35.8243 90.7971 36.3625 90.5878 36.8558C90.3785 37.3492 90.0833 37.7752 89.702 38.134C89.3208 38.4927 88.8742 38.7731 88.3622 38.9749C87.8502 39.1767 87.2915 39.2776 86.686 39.2776ZM86.6748 37.9995C87.071 37.9995 87.4372 37.9322 87.7736 37.7976C88.11 37.6631 88.4014 37.4706 88.6481 37.2202C88.8948 36.9698 89.0872 36.6783 89.2255 36.3457C89.3638 36.0131 89.4329 35.6449 89.4329 35.2413C89.4329 34.8377 89.3638 34.4696 89.2255 34.137C89.0872 33.8044 88.8948 33.5129 88.6481 33.2625C88.4014 33.0121 88.11 32.8196 87.7736 32.6851C87.4373 32.5505 87.071 32.4832 86.6748 32.4832C86.2787 32.4832 85.9143 32.5505 85.5817 32.6851C85.2491 32.8196 84.9576 33.0121 84.7072 33.2625C84.4567 33.5129 84.2624 33.8044 84.1242 34.137C83.9859 34.4696 83.9168 34.8378 83.9168 35.2413C83.9168 35.6375 83.9859 36.0037 84.1242 36.3401C84.2625 36.6765 84.4549 36.9698 84.7016 37.2202C84.9483 37.4706 85.2397 37.6631 85.5761 37.7976C85.9125 37.9322 86.2787 37.9995 86.6749 37.9995H86.6748ZM107.716 39.2776C107.103 39.2776 106.516 39.1898 105.956 39.0142C105.395 38.8385 104.951 38.6124 104.622 38.3358L105.126 37.2034C105.44 37.4501 105.829 37.6556 106.292 37.8201C106.756 37.9845 107.23 38.0667 107.716 38.0667C108.127 38.0667 108.46 38.0219 108.714 37.9322C108.968 37.8425 109.155 37.721 109.275 37.5678C109.394 37.4146 109.454 37.2408 109.454 37.0464C109.454 36.8073 109.368 36.6148 109.196 36.469C109.024 36.3233 108.802 36.2074 108.529 36.1214C108.256 36.0355 107.953 35.9551 107.621 35.8804C107.288 35.8057 106.956 35.7179 106.623 35.6169C106.29 35.516 105.988 35.3852 105.715 35.2245C105.442 35.0638 105.22 34.8489 105.048 34.5798C104.876 34.3107 104.79 33.9669 104.79 33.5483C104.79 33.1222 104.904 32.7317 105.132 32.3767C105.36 32.0217 105.707 31.7376 106.174 31.5246C106.642 31.3116 107.234 31.2051 107.952 31.2051C108.422 31.2051 108.89 31.2648 109.353 31.3845C109.816 31.5041 110.22 31.676 110.564 31.9002L110.104 33.0326C109.753 32.8233 109.39 32.6682 109.017 32.5673C108.643 32.4664 108.284 32.416 107.94 32.416C107.537 32.416 107.21 32.4646 106.959 32.5617C106.709 32.6589 106.526 32.786 106.41 32.943C106.294 33.0999 106.236 33.2793 106.236 33.4811C106.236 33.7203 106.32 33.9128 106.488 34.0585C106.657 34.2043 106.877 34.3182 107.15 34.4005C107.423 34.4827 107.727 34.563 108.064 34.6415C108.4 34.72 108.734 34.8078 109.067 34.905C109.4 35.0021 109.702 35.1292 109.975 35.2862C110.248 35.4432 110.469 35.6562 110.637 35.9253C110.805 36.1944 110.889 36.5344 110.889 36.9455C110.889 37.3641 110.775 37.7509 110.547 38.1059C110.319 38.461 109.97 38.745 109.499 38.958C109.028 39.1711 108.434 39.2776 107.716 39.2776L107.716 39.2776ZM125.17 39.1655V31.3173H128.399C129.094 31.3173 129.69 31.4294 130.187 31.6536C130.684 31.8779 131.067 32.1993 131.336 32.6178C131.605 33.0364 131.74 33.5335 131.74 34.109C131.74 34.6845 131.605 35.1816 131.336 35.6001C131.067 36.0187 130.684 36.3401 130.187 36.5644C129.69 36.7886 129.094 36.9007 128.399 36.9007H125.977L126.627 36.2168V39.1655H125.17V39.1655ZM126.627 36.3738L125.977 35.6674H128.331C128.974 35.6674 129.458 35.531 129.783 35.2582C130.109 34.9854 130.271 34.6023 130.271 34.109C130.271 33.6082 130.109 33.2233 129.783 32.9542C129.458 32.6851 128.974 32.5506 128.331 32.5506H125.977L126.627 31.833V36.3738V36.3738ZM146.032 39.1655V31.3173H147.489V39.1655H146.032ZM164.035 39.1655V32.5506H161.433V31.3173H168.093V32.5506H165.492V39.1655H164.035ZM180.524 39.1655L184.056 31.3173H185.491L189.034 39.1655H187.509L184.47 32.0909H185.053L182.026 39.1655H180.524H180.524ZM182.15 37.3492L182.542 36.2056H186.78L187.173 37.3492H182.15H182.15ZM202.866 39.1655V31.3173H204.323V37.9322H208.427V39.1655H202.866Z" fill="white"/>
</g>
<defs>
<clipPath id="clip0_655_463">
<rect width="208.427" height="42.1287" fill="white"/>
</clipPath>
</defs>
</svg>
