<svg width="57" height="57" viewBox="0 0 57 57" fill="none" xmlns="http://www.w3.org/2000/svg">
<g clip-path="url(#clip0_546_5875)">
<path d="M16.4992 40.0696C23.0045 46.5749 33.564 46.5749 40.0694 40.0696C46.5748 33.5642 46.5748 23.0047 40.0694 16.4993C33.564 9.99395 23.0045 9.99395 16.4992 16.4993C9.99378 23.0047 9.99378 33.5642 16.4992 40.0696ZM25.338 22.9104H32.4091C32.7626 22.9104 33.069 23.0519 33.2929 23.2758C33.5169 23.4997 33.6583 23.8061 33.6583 24.1597V31.2307C33.6583 31.9143 33.0926 32.4799 32.4091 32.4799C31.7255 32.4799 31.1598 31.9143 31.1598 31.2307L31.1598 27.1766L25.0434 33.2931C24.5602 33.7763 23.7588 33.7763 23.2756 33.2931C22.7924 32.8099 22.7924 32.0085 23.2756 31.5254L29.3921 25.4089L25.338 25.4089C24.6545 25.4089 24.0888 24.8432 24.0888 24.1597C24.0888 23.4761 24.6545 22.9104 25.338 22.9104Z" fill="white"/>
</g>
<defs>
<clipPath id="clip0_546_5875">
<rect width="40" height="40" fill="white" transform="translate(28.2843 56.5685) rotate(-135)"/>
</clipPath>
</defs>
</svg>
