<svg width="60" height="60" viewBox="0 0 60 60" fill="none" xmlns="http://www.w3.org/2000/svg">
<g opacity="0.6">
<path d="M30 56.875C15.175 56.875 3.125 44.825 3.125 30C3.125 15.175 15.175 3.125 30 3.125C44.825 3.125 56.875 15.175 56.875 30C56.875 44.825 44.825 56.875 30 56.875ZM30 6.875C17.25 6.875 6.875 17.25 6.875 30C6.875 42.75 17.25 53.125 30 53.125C42.75 53.125 53.125 42.75 53.125 30C53.125 17.25 42.75 6.875 30 6.875Z" fill="#1A1A1A"/>
<path d="M33.1498 40.7005C32.6748 40.7005 32.1998 40.5255 31.8248 40.1505L22.9998 31.3255C22.2748 30.6005 22.2748 29.4005 22.9998 28.6755L31.8248 19.8504C32.5498 19.1254 33.7498 19.1254 34.4748 19.8504C35.1998 20.5754 35.1998 21.7754 34.4748 22.5004L26.9748 30.0005L34.4748 37.5005C35.1998 38.2255 35.1998 39.4255 34.4748 40.1505C34.1248 40.5255 33.6498 40.7005 33.1498 40.7005Z" fill="#1A1A1A"/>
</g>
</svg>
