<svg width="40" height="40" viewBox="0 0 40 40" fill="none" xmlns="http://www.w3.org/2000/svg">
<rect width="40" height="40" rx="20" fill="white"/>
<mask id="mask0_655_452" style="mask-type:luminance" maskUnits="userSpaceOnUse" x="10" y="10" width="20" height="20">
<path d="M30 10H10V30H30V10Z" fill="white"/>
</mask>
<g mask="url(#mask0_655_452)">
<path d="M24.542 28.9582C23.6003 28.9582 22.6087 28.7332 21.5837 28.2998C20.5837 27.8748 19.5753 27.2915 18.592 26.5832C17.617 25.8665 16.6753 25.0665 15.7837 24.1915C14.9003 23.2998 14.1003 22.3582 13.392 21.3915C12.6753 20.3915 12.1003 19.3915 11.692 18.4248C11.2587 17.3915 11.042 16.3915 11.042 15.4498C11.042 14.7998 11.1587 14.1832 11.3837 13.6082C11.617 13.0165 11.992 12.4665 12.5003 11.9915C13.142 11.3582 13.8753 11.0415 14.6587 11.0415C14.9837 11.0415 15.317 11.1165 15.6003 11.2498C15.9253 11.3998 16.2003 11.6248 16.4003 11.9248L18.3337 14.6498C18.5087 14.8915 18.642 15.1248 18.7337 15.3582C18.842 15.6082 18.9003 15.8582 18.9003 16.0998C18.9003 16.4165 18.8087 16.7248 18.6337 17.0165C18.5087 17.2415 18.317 17.4832 18.0753 17.7248L17.5087 18.3165C17.517 18.3415 17.5253 18.3582 17.5337 18.3748C17.6337 18.5498 17.8337 18.8498 18.217 19.2998C18.6253 19.7665 19.0087 20.1915 19.392 20.5832C19.8837 21.0665 20.292 21.4498 20.6753 21.7665C21.1503 22.1665 21.4587 22.3665 21.642 22.4582L21.6253 22.4998L22.2337 21.8998C22.492 21.6415 22.742 21.4498 22.9837 21.3248C23.442 21.0415 24.0253 20.9915 24.6087 21.2332C24.8253 21.3248 25.0587 21.4498 25.3087 21.6248L28.0753 23.5915C28.3837 23.7998 28.6087 24.0665 28.742 24.3832C28.867 24.6998 28.9253 24.9915 28.9253 25.2832C28.9253 25.6832 28.8337 26.0832 28.6587 26.4582C28.4837 26.8332 28.267 27.1582 27.992 27.4582C27.517 27.9832 27.0003 28.3582 26.4003 28.5998C25.8253 28.8332 25.2003 28.9582 24.542 28.9582ZM14.6587 12.2915C14.2003 12.2915 13.7753 12.4915 13.367 12.8915C12.9837 13.2498 12.717 13.6415 12.5503 14.0665C12.3753 14.4998 12.292 14.9582 12.292 15.4498C12.292 16.2248 12.4753 17.0665 12.842 17.9332C13.217 18.8165 13.742 19.7332 14.4087 20.6498C15.0753 21.5665 15.8337 22.4582 16.667 23.2998C17.5003 24.1248 18.4003 24.8915 19.3253 25.5665C20.2253 26.2248 21.1503 26.7582 22.067 27.1415C23.492 27.7498 24.8253 27.8915 25.9253 27.4332C26.3503 27.2582 26.7253 26.9915 27.067 26.6082C27.2587 26.3998 27.4087 26.1748 27.5337 25.9082C27.6337 25.6998 27.6837 25.4832 27.6837 25.2665C27.6837 25.1332 27.6587 24.9998 27.592 24.8498C27.567 24.7998 27.517 24.7082 27.3587 24.5998L24.592 22.6332C24.4253 22.5165 24.2753 22.4332 24.1337 22.3748C23.9503 22.2998 23.8753 22.2248 23.592 22.3998C23.4253 22.4832 23.2753 22.6082 23.1087 22.7748L22.4753 23.3998C22.1503 23.7165 21.6503 23.7915 21.267 23.6498L21.042 23.5498C20.7003 23.3665 20.3003 23.0832 19.8587 22.7082C19.4587 22.3665 19.0253 21.9665 18.5003 21.4498C18.092 21.0332 17.6837 20.5915 17.2587 20.0998C16.867 19.6415 16.5837 19.2498 16.4087 18.9248L16.3087 18.6748C16.2587 18.4832 16.242 18.3748 16.242 18.2582C16.242 17.9582 16.3503 17.6915 16.5587 17.4832L17.1837 16.8332C17.3503 16.6665 17.4753 16.5082 17.5587 16.3665C17.6253 16.2582 17.6503 16.1665 17.6503 16.0832C17.6503 16.0165 17.6253 15.9165 17.5837 15.8165C17.5253 15.6832 17.4337 15.5332 17.317 15.3748L15.3837 12.6415C15.3003 12.5248 15.2003 12.4415 15.0753 12.3832C14.942 12.3248 14.8003 12.2915 14.6587 12.2915ZM21.6253 22.5082L21.492 23.0748L21.717 22.4915C21.6753 22.4832 21.642 22.4915 21.6253 22.5082Z" fill="#E40714"/>
<path d="M25.4167 18.1247C25.075 18.1247 24.7917 17.8413 24.7917 17.4997C24.7917 17.1997 24.4917 16.5747 23.9917 16.0413C23.5 15.5163 22.9583 15.208 22.5 15.208C22.1583 15.208 21.875 14.9247 21.875 14.583C21.875 14.2413 22.1583 13.958 22.5 13.958C23.3083 13.958 24.1583 14.3913 24.9 15.183C25.5917 15.9247 26.0417 16.833 26.0417 17.4997C26.0417 17.8413 25.7583 18.1247 25.4167 18.1247Z" fill="#E40714"/>
<path d="M28.3333 18.1248C27.9917 18.1248 27.7083 17.8415 27.7083 17.4998C27.7083 14.6248 25.375 12.2915 22.5 12.2915C22.1583 12.2915 21.875 12.0082 21.875 11.6665C21.875 11.3248 22.1583 11.0415 22.5 11.0415C26.0583 11.0415 28.9583 13.9415 28.9583 17.4998C28.9583 17.8415 28.675 18.1248 28.3333 18.1248Z" fill="#E40714"/>
</g>
</svg>
