<svg width="24" height="24" viewBox="0 0 24 24" fill="none" xmlns="http://www.w3.org/2000/svg">
<path d="M6 5C6.17554 5 6.34798 4.9538 6.50001 4.86604C6.65203 4.77827 6.77827 4.65204 6.86604 4.50002C6.95381 4.348 7.00002 4.17555 7.00003 4.00002C7.00003 3.82448 6.95382 3.65203 6.86606 3.50001C6.77829 3.34799 6.65205 3.22175 6.50003 3.13398C6.34801 3.04621 6.17557 3 6.00003 3C5.82449 3 5.65205 3.0462 5.50003 3.13397C5.34801 3.22174 5.22177 3.34798 5.134 3.5H5C4.60218 3.5 4.22064 3.65804 3.93934 3.93934C3.65804 4.22064 3.5 4.60218 3.5 5V9.5H4.5V5C4.5 4.86739 4.55268 4.74021 4.64645 4.64645C4.74021 4.55268 4.86739 4.5 5 4.5H5.134C5.22177 4.65202 5.348 4.77825 5.50001 4.86602C5.65203 4.95379 5.82447 5 6 5Z" fill="white"/>
<path fill-rule="evenodd" clip-rule="evenodd" d="M5.0799 9.49996H3.4999C3.2239 9.49996 2.9974 9.72446 3.0224 9.99946C3.12338 11.1066 3.55752 12.1572 4.26758 13.0126C4.97763 13.8681 5.93027 14.4883 6.9999 14.7915V16C6.9999 16.653 7.4174 17.209 7.9999 17.415C8.0052 18.3764 8.39221 19.2963 9.07578 19.9724C9.75935 20.6484 10.6835 21.0253 11.6449 21.02C12.6063 21.0147 13.5262 20.6276 14.2023 19.9441C14.8784 19.2605 15.2552 18.3364 15.2499 17.375V15.375C15.2499 14.8777 15.4474 14.4008 15.7991 14.0491C16.1507 13.6975 16.6276 13.5 17.1249 13.5C17.6222 13.5 18.0991 13.6975 18.4507 14.0491C18.8024 14.4008 18.9999 14.8777 18.9999 15.375V16.585C18.6662 16.7029 18.3848 16.9351 18.2057 17.2404C18.0266 17.5457 17.9612 17.9045 18.021 18.2534C18.0808 18.6022 18.2621 18.9187 18.5327 19.1469C18.8033 19.3751 19.1459 19.5002 19.4999 19.5002C19.8539 19.5002 20.1965 19.3751 20.4671 19.1469C20.7377 18.9187 20.919 18.6022 20.9788 18.2534C21.0386 17.9045 20.9732 17.5457 20.7941 17.2404C20.6149 16.9351 20.3336 16.7029 19.9999 16.585V15.375C19.9999 14.6125 19.697 13.8812 19.1578 13.342C18.6187 12.8029 17.8874 12.5 17.1249 12.5C16.3624 12.5 15.6311 12.8029 15.092 13.342C14.5528 13.8812 14.2499 14.6125 14.2499 15.375V17.375C14.2552 18.0711 13.9837 18.7409 13.4952 19.237C13.0067 19.733 12.3411 20.0147 11.6449 20.02C10.9487 20.0253 10.2789 19.7538 9.78288 19.2653C9.28685 18.7767 9.0052 18.1112 8.9999 17.415C9.29248 17.3115 9.54577 17.1199 9.72487 16.8664C9.90397 16.613 10.0001 16.3103 9.9999 16V14.7915C11.0695 14.4883 12.0222 13.8681 12.7322 13.0126C13.4423 12.1572 13.8764 11.1066 13.9774 9.99946C14.0024 9.72446 13.7759 9.49996 13.4999 9.49996V4.99996C13.4999 4.60213 13.3419 4.2206 13.0606 3.9393C12.7793 3.65799 12.3977 3.49996 11.9999 3.49996H11.8659C11.7558 3.30933 11.5859 3.16034 11.3826 3.07611C11.1792 2.99188 10.9537 2.9771 10.7411 3.03408C10.5284 3.09105 10.3406 3.21659 10.2066 3.39122C10.0725 3.56586 9.99991 3.77983 9.9999 3.99996C9.99991 4.22008 10.0725 4.43405 10.2066 4.60869C10.3406 4.78333 10.5284 4.90886 10.7411 4.96584C10.9537 5.02281 11.1792 5.00804 11.3826 4.9238C11.5859 4.83957 11.7558 4.69059 11.8659 4.49996H11.9999C12.1325 4.49996 12.2597 4.55263 12.3535 4.6464C12.4472 4.74017 12.4999 4.86735 12.4999 4.99996V9.49996H11.9199C11.6439 9.49996 11.4244 9.72496 11.3774 9.99746C11.2604 10.6758 10.9075 11.291 10.381 11.7344C9.85449 12.1779 9.18826 12.4211 8.4999 12.4211C7.81154 12.4211 7.14531 12.1779 6.61881 11.7344C6.09232 11.291 5.73941 10.6758 5.6224 9.99746C5.5754 9.72546 5.3559 9.49996 5.0799 9.49996ZM12.2899 10.5H12.8874C12.6608 11.4942 12.1033 12.3819 11.3062 13.0178C10.509 13.6537 9.51959 14 8.4999 14C7.48021 14 6.49075 13.6537 5.69362 13.0178C4.8965 12.3819 4.33898 11.4942 4.1124 10.5H4.7099C4.93089 11.3366 5.42249 12.0765 6.10805 12.6045C6.7936 13.1325 7.63459 13.4188 8.4999 13.4188C9.3652 13.4188 10.2062 13.1325 10.8917 12.6045C11.5773 12.0765 12.0689 11.3366 12.2899 10.5ZM19.4999 17.5C19.6325 17.5 19.7597 17.5526 19.8535 17.6464C19.9472 17.7402 19.9999 17.8673 19.9999 18C19.9999 18.1326 19.9472 18.2597 19.8535 18.3535C19.7597 18.4473 19.6325 18.5 19.4999 18.5C19.3673 18.5 19.2401 18.4473 19.1463 18.3535C19.0526 18.2597 18.9999 18.1326 18.9999 18C18.9999 17.8673 19.0526 17.7402 19.1463 17.6464C19.2401 17.5526 19.3673 17.5 19.4999 17.5ZM8.9999 15V16C8.9999 16.1326 8.94722 16.2597 8.85345 16.3535C8.75968 16.4473 8.63251 16.5 8.4999 16.5C8.36729 16.5 8.24011 16.4473 8.14634 16.3535C8.05258 16.2597 7.9999 16.1326 7.9999 16V15H8.9999Z" fill="white"/>
</svg>
