<svg width="313" height="63" viewBox="0 0 313 63" fill="none" xmlns="http://www.w3.org/2000/svg">
<g clip-path="url(#clip0_736_732)">
<path fill-rule="evenodd" clip-rule="evenodd" d="M74.9015 24.834L80.7514 30.5034L49.7422 61.3353L49.8249 40.9457L58.6703 40.9499L74.9015 24.834Z" fill="#E40714"/>
<path fill-rule="evenodd" clip-rule="evenodd" d="M49.7979 22.1341L72.0625 22.1012L49.7979 0V22.1341Z" fill="#E40714"/>
<path fill-rule="evenodd" clip-rule="evenodd" d="M5.84995 38.1654L0 32.496L31.0092 1.66406L30.9265 22.0537L22.0811 22.0495L5.84995 38.1654Z" fill="#E40714"/>
<path fill-rule="evenodd" clip-rule="evenodd" d="M30.9541 40.8662L8.68945 40.8991L30.9541 63.0002V40.8662Z" fill="#E40714"/>
<path d="M102.917 16.6125C100.799 16.7798 99.3171 17.3397 98.4772 18.2706C97.6374 19.2087 97.2212 20.903 97.2212 23.3391V35.287H91.7441V11.8565H96.878V14.5617C97.7032 13.5073 98.6086 12.7365 99.5873 12.242C100.573 11.7547 101.683 11.5075 102.917 11.5075V16.6124V16.6125ZM122.364 20.9757C121.897 19.4123 121.108 18.2196 120.005 17.4052C118.903 16.5834 117.508 16.1762 115.828 16.1762C114.375 16.1762 113.068 16.6197 111.914 17.4997C110.76 18.3796 109.986 19.5358 109.585 20.9757H122.364ZM109.395 25.2953C109.577 26.9823 110.256 28.3204 111.418 29.2876C112.571 30.262 114.076 30.7492 115.909 30.7492C117.136 30.7492 118.238 30.4947 119.217 29.9784C120.188 29.4694 120.962 28.7494 121.532 27.8258H127.447C126.446 30.3783 124.957 32.3636 122.963 33.7816C120.977 35.1924 118.676 35.8977 116.062 35.8977C114.309 35.8977 112.696 35.5923 111.22 34.9742C109.745 34.356 108.423 33.4398 107.248 32.2326C106.138 31.0836 105.276 29.7528 104.663 28.2403C104.049 26.735 103.742 25.1788 103.742 23.5935C103.742 21.9573 104.027 20.423 104.59 18.9831C105.152 17.5432 105.984 16.2488 107.08 15.0998C108.277 13.8344 109.636 12.86 111.147 12.1837C112.659 11.5001 114.214 11.1583 115.828 11.1583C117.866 11.1583 119.772 11.6165 121.539 12.54C123.306 13.4636 124.811 14.7652 126.052 16.4378C126.812 17.4486 127.367 18.5757 127.732 19.8266C128.097 21.0701 128.279 22.5027 128.279 24.1243C128.279 24.2479 128.272 24.4442 128.257 24.7061C128.243 24.9752 128.236 25.1642 128.236 25.2951H109.395L109.395 25.2953ZM149.735 23.6664C149.735 21.6665 149.092 19.994 147.821 18.6559C146.543 17.3251 144.944 16.6561 143.038 16.6561C141.154 16.6561 139.547 17.3397 138.211 18.6995C136.874 20.0667 136.21 21.6956 136.21 23.5791C136.21 25.557 136.882 27.2006 138.218 28.5168C139.562 29.833 141.256 30.4874 143.294 30.4874C145.09 30.4874 146.609 29.8257 147.858 28.5022C149.106 27.1859 149.734 25.5716 149.734 23.6663L149.735 23.6664ZM149.968 13.7183V4.26465H155.358V35.2871H149.968V33.3672C148.888 34.218 147.748 34.8507 146.551 35.2725C145.353 35.6871 144.053 35.8979 142.658 35.8979C141.176 35.8979 139.781 35.6652 138.467 35.1926C137.152 34.7272 135.976 34.0436 134.939 33.1491C133.515 31.9274 132.42 30.4803 131.661 28.815C130.894 27.1424 130.514 25.3753 130.514 23.4992C130.514 21.7684 130.865 20.1032 131.573 18.5106C132.274 16.918 133.274 15.5436 134.552 14.3801C135.626 13.3693 136.853 12.6057 138.233 12.0748C139.613 11.5513 141.088 11.2894 142.658 11.2894C144.17 11.2894 145.506 11.4857 146.675 11.8785C147.843 12.2639 148.946 12.882 149.968 13.7183H149.968ZM177.952 23.6664C177.952 21.6665 177.309 19.994 176.039 18.6559C174.761 17.3251 173.161 16.6561 171.256 16.6561C169.371 16.6561 167.765 17.3397 166.428 18.6995C165.092 20.0667 164.427 21.6956 164.427 23.5791C164.427 25.557 165.099 27.2006 166.436 28.5168C167.779 29.833 169.474 30.4874 171.511 30.4874C173.307 30.4874 174.826 29.8257 176.075 28.5022C177.324 27.1859 177.952 25.5716 177.952 23.6663L177.952 23.6664ZM178.186 13.7183V4.26465H183.575V35.2871H178.186V33.3672C177.105 34.218 175.966 34.8507 174.768 35.2725C173.571 35.6871 172.271 35.8979 170.876 35.8979C169.393 35.8979 167.999 35.6652 166.684 35.1926C165.37 34.7272 164.194 34.0436 163.157 33.1491C161.733 31.9274 160.637 30.4803 159.878 28.815C159.111 27.1424 158.731 25.3753 158.731 23.4992C158.731 21.7684 159.082 20.1032 159.79 18.5106C160.491 16.918 161.492 15.5436 162.77 14.3801C163.843 13.3693 165.07 12.6057 166.45 12.0748C167.831 11.5513 169.306 11.2894 170.876 11.2894C172.387 11.2894 173.724 11.4857 174.892 11.8785C176.061 12.2639 177.163 12.882 178.186 13.7183H178.186ZM193.478 9.4569H188.132V4.26465H193.478V9.4569ZM188.132 35.2871V11.8566H193.478V35.2871H188.132ZM203.745 11.8566V14.5109C204.541 13.4492 205.461 12.6566 206.491 12.1475C207.528 11.6312 208.704 11.3767 210.033 11.3767C211.727 11.3767 213.209 11.6967 214.473 12.3366C215.736 12.9766 216.788 13.9365 217.628 15.209C218.168 16.0671 218.555 17.0343 218.796 18.1178C219.03 19.2086 219.146 20.7939 219.146 22.881V35.2871H213.669V24.9026C213.669 21.7684 213.304 19.6159 212.581 18.4451C211.851 17.2816 210.595 16.6999 208.813 16.6999C206.987 16.6999 205.673 17.3399 204.877 18.6269C204.081 19.9141 203.679 22.1175 203.679 25.2445V35.2871H198.378V11.8567H203.745L203.745 11.8566ZM242.544 11.8566H247.452V31.4038C247.452 35.4689 246.364 38.6612 244.187 40.9737C242.011 43.2935 239.024 44.4498 235.227 44.4498C232.386 44.4498 230.006 43.788 228.1 42.4573C226.186 41.1338 224.777 39.163 223.879 36.5525H229.18C229.75 37.5997 230.561 38.4213 231.619 39.0177C232.671 39.614 233.847 39.9121 235.147 39.9121C237.33 39.9121 239.097 39.2068 240.463 37.7887C241.821 36.3779 242.5 34.509 242.5 32.1892V31.9565C241.449 33.0545 240.244 33.8836 238.886 34.4435C237.535 35.0035 236.045 35.2871 234.438 35.2871C232.868 35.2871 231.378 35.018 229.976 34.4799C228.567 33.9345 227.325 33.1636 226.245 32.1529C225.076 31.0475 224.156 29.724 223.484 28.1896C222.812 26.6552 222.477 25.0917 222.477 23.4992C222.477 19.9504 223.601 17.0198 225.858 14.7073C228.107 12.4021 230.97 11.2459 234.438 11.2459C236.016 11.2459 237.476 11.5222 238.813 12.0821C240.142 12.6348 241.39 13.4929 242.544 14.6418V11.8567V11.8566ZM227.91 23.1573C227.91 25.2008 228.596 26.917 229.976 28.2913C231.349 29.6658 233.043 30.3566 235.059 30.3566C236.899 30.3566 238.52 29.6585 239.923 28.2695C241.325 26.8805 242.033 25.2589 242.033 23.4191C242.033 21.412 241.339 19.7104 239.952 18.2923C238.572 16.8815 236.921 16.1762 235.015 16.1762C233.044 16.1762 231.371 16.8525 229.984 18.1978C228.603 19.5504 227.91 21.2012 227.91 23.1573ZM253.805 35.2871V16.6998H250.212V11.8566H253.805V4.26465H259.282V11.8566H262.919V16.6998H259.282V35.2871H253.805ZM269.761 23.4192C269.761 25.5935 270.36 27.3097 271.558 28.5823C272.755 29.8549 274.376 30.4876 276.436 30.4876C278.459 30.4876 280.073 29.8404 281.278 28.5387C282.482 27.2443 283.081 25.4917 283.081 23.2956C283.081 21.3176 282.453 19.7032 281.19 18.4306C279.927 17.158 278.342 16.5253 276.436 16.5253C274.464 16.5253 272.865 17.1653 271.623 18.4524C270.382 19.7323 269.761 21.3903 269.761 23.4193V23.4192ZM264.109 23.4628C264.109 21.8194 264.416 20.2558 265.022 18.7724C265.628 17.2889 266.504 15.9726 267.658 14.8236C268.841 13.6456 270.177 12.7366 271.66 12.1039C273.142 11.4712 274.683 11.1585 276.282 11.1585C277.977 11.1585 279.547 11.4421 280.978 12.0021C282.409 12.5621 283.731 13.3983 284.929 14.5254C286.156 15.7035 287.098 17.0561 287.77 18.5977C288.441 20.1394 288.777 21.7174 288.777 23.3391C288.777 25.128 288.485 26.757 287.901 28.2332C287.317 29.7094 286.44 31.0401 285.272 32.2328C284.096 33.4399 282.767 34.3562 281.27 34.9743C279.773 35.5925 278.145 35.8979 276.392 35.8979C274.625 35.8979 273.011 35.5852 271.558 34.9598C270.097 34.3344 268.775 33.3964 267.578 32.1529C266.431 30.9312 265.569 29.5859 264.985 28.1169C264.401 26.648 264.109 25.099 264.109 23.4628H264.109ZM297.599 11.8567V14.511C298.395 13.4493 299.315 12.6566 300.345 12.1476C301.382 11.6313 302.558 11.3768 303.887 11.3768C305.581 11.3768 307.063 11.6967 308.327 12.3367C309.59 12.9767 310.642 13.9366 311.481 15.2091C312.022 16.0672 312.409 17.0344 312.65 18.1179C312.884 19.2087 313 20.794 313 22.8811V35.2871H307.523V24.9027C307.523 21.7685 307.158 19.616 306.435 18.4452C305.705 17.2817 304.449 16.7 302.667 16.7C300.841 16.7 299.527 17.3399 298.731 18.627C297.935 19.9142 297.533 22.1176 297.533 25.2446V35.2872H292.232V11.8568H297.599L297.599 11.8567Z" fill="black"/>
<path d="M100.028 58.5692V46.8328H102.217V58.5692H100.028ZM91.7441 58.5692V46.8328H93.9329V58.5692H91.7441ZM93.7477 53.5393V51.6782H100.196V53.5393H93.7477ZM130.178 58.7369C129.258 58.7369 128.41 58.586 127.636 58.2841C126.861 57.9823 126.188 57.5604 125.615 57.0183C125.043 56.4762 124.599 55.839 124.285 55.1069C123.971 54.3748 123.814 53.5728 123.814 52.7009C123.814 51.8291 123.971 51.0271 124.285 50.295C124.599 49.5628 125.043 48.9257 125.615 48.3836C126.188 47.8415 126.861 47.4195 127.636 47.1178C128.41 46.8159 129.252 46.665 130.161 46.665C131.082 46.665 131.926 46.8159 132.695 47.1178C133.464 47.4196 134.135 47.8415 134.707 48.3836C135.28 48.9257 135.723 49.5628 136.037 50.295C136.352 51.0271 136.509 51.829 136.509 52.7009C136.509 53.5728 136.352 54.3776 136.037 55.1153C135.723 55.853 135.28 56.4901 134.707 57.0267C134.135 57.5631 133.464 57.9823 132.695 58.2841C131.926 58.586 131.087 58.7369 130.178 58.7369ZM130.161 56.8255C130.756 56.8255 131.306 56.7249 131.811 56.5237C132.316 56.3224 132.754 56.0347 133.125 55.6602C133.495 55.2858 133.784 54.8498 133.992 54.3524C134.199 53.855 134.303 53.3045 134.303 52.7009C134.303 52.0973 134.199 51.5469 133.992 51.0495C133.784 50.5521 133.495 50.1161 133.125 49.7417C132.754 49.3673 132.316 49.0795 131.811 48.8782C131.306 48.677 130.756 48.5764 130.161 48.5764C129.566 48.5764 129.019 48.677 128.52 48.8782C128.02 49.0795 127.582 49.3672 127.206 49.7417C126.83 50.1161 126.539 50.5521 126.331 51.0495C126.123 51.5469 126.019 52.0974 126.019 52.7009C126.019 53.2933 126.123 53.841 126.331 54.3441C126.539 54.8471 126.828 55.2858 127.198 55.6602C127.568 56.0346 128.006 56.3224 128.511 56.5237C129.016 56.7249 129.566 56.8255 130.161 56.8255H130.161ZM161.759 58.7369C160.839 58.7369 159.958 58.6055 159.116 58.3429C158.274 58.0802 157.606 57.7421 157.113 57.3285L157.87 55.6351C158.342 56.0039 158.925 56.3113 159.621 56.5572C160.317 56.8031 161.03 56.9261 161.759 56.9261C162.377 56.9261 162.876 56.859 163.258 56.7249C163.64 56.5907 163.92 56.4091 164.1 56.18C164.279 55.9508 164.369 55.691 164.369 55.4003C164.369 55.0427 164.24 54.7548 163.982 54.5368C163.724 54.3189 163.39 54.1457 162.98 54.0171C162.57 53.8885 162.116 53.7684 161.616 53.6566C161.117 53.5449 160.617 53.4135 160.118 53.2626C159.618 53.1117 159.164 52.9161 158.754 52.6758C158.344 52.4355 158.01 52.1141 157.752 51.7117C157.494 51.3093 157.365 50.7951 157.365 50.1692C157.365 49.532 157.536 48.948 157.878 48.4171C158.221 47.8862 158.743 47.4614 159.444 47.1429C160.146 46.8243 161.035 46.665 162.113 46.665C162.82 46.665 163.522 46.7544 164.218 46.9333C164.913 47.1121 165.52 47.3693 166.036 47.7045L165.346 49.3979C164.818 49.085 164.274 48.8531 163.712 48.7021C163.151 48.5512 162.612 48.4758 162.096 48.4758C161.49 48.4758 160.999 48.5485 160.623 48.6938C160.247 48.8391 159.972 49.0291 159.798 49.2639C159.624 49.4986 159.537 49.7669 159.537 50.0686C159.537 50.4263 159.663 50.7141 159.916 50.9321C160.168 51.1501 160.499 51.3205 160.909 51.4435C161.319 51.5665 161.776 51.6866 162.281 51.8039C162.786 51.9213 163.289 52.0526 163.788 52.1979C164.288 52.3432 164.742 52.5333 165.152 52.768C165.562 53.0028 165.893 53.3213 166.145 53.7237C166.398 54.1261 166.524 54.6346 166.524 55.2494C166.524 55.8753 166.353 56.4538 166.011 56.9847C165.668 57.5157 165.144 57.9404 164.436 58.259C163.729 58.5775 162.837 58.7368 161.759 58.7368L161.759 58.7369ZM187.97 58.5692V46.8328H192.819C193.863 46.8328 194.758 47.0005 195.504 47.3358C196.251 47.6712 196.826 48.1518 197.23 48.7777C197.634 49.4036 197.836 50.1469 197.836 51.0076C197.836 51.8683 197.634 52.6116 197.23 53.2375C196.826 53.8634 196.251 54.3441 195.504 54.6794C194.758 55.0148 193.863 55.1824 192.819 55.1824H189.182L190.159 54.1597V58.5693H187.97V58.5692ZM190.159 54.3944L189.182 53.3381H192.718C193.683 53.3381 194.41 53.1341 194.898 52.7261C195.387 52.3182 195.631 51.7453 195.631 51.0076C195.631 50.2587 195.387 49.6831 194.898 49.2807C194.41 48.8782 193.683 48.6771 192.718 48.6771H189.182L190.159 47.6041V54.3944V54.3944ZM219.299 58.5692V46.8328H221.488V58.5692H219.299ZM246.334 58.5692V48.6771H242.428V46.8328H252.429V48.6771H248.523V58.5692H246.334ZM271.097 58.5692L276.4 46.8328H278.555L283.876 58.5692H281.586L277.023 47.9897H277.899L273.353 58.5692H271.097H271.097ZM273.538 55.853L274.127 54.1429H280.492L281.081 55.853H273.538H273.538ZM304.648 58.5692V46.8328H306.837V56.7249H312.999V58.5692H304.648Z" fill="black"/>
</g>
<defs>
<clipPath id="clip0_736_732">
<rect width="313" height="63" fill="white"/>
</clipPath>
</defs>
</svg>
