<svg width="16" height="16" viewBox="0 0 16 16" fill="none" xmlns="http://www.w3.org/2000/svg">
<path d="M7.99967 10.6663C8.70692 10.6663 9.3852 10.3854 9.88529 9.88529C10.3854 9.3852 10.6663 8.70692 10.6663 7.99967C10.6663 7.29243 10.3854 6.61415 9.88529 6.11406C9.3852 5.61396 8.70692 5.33301 7.99967 5.33301C7.29243 5.33301 6.61415 5.61396 6.11406 6.11406C5.61396 6.61415 5.33301 7.29243 5.33301 7.99967C5.33301 8.70692 5.61396 9.3852 6.11406 9.88529C6.61415 10.3854 7.29243 10.6663 7.99967 10.6663Z" stroke="#2D2D2D" stroke-width="1.28" stroke-linecap="round" stroke-linejoin="round"/>
<path d="M2 10.6667V5.33333C2 4.44928 2.35119 3.60143 2.97631 2.97631C3.60143 2.35119 4.44928 2 5.33333 2H10.6667C11.5507 2 12.3986 2.35119 13.0237 2.97631C13.6488 3.60143 14 4.44928 14 5.33333V10.6667C14 11.5507 13.6488 12.3986 13.0237 13.0237C12.3986 13.6488 11.5507 14 10.6667 14H5.33333C4.44928 14 3.60143 13.6488 2.97631 13.0237C2.35119 12.3986 2 11.5507 2 10.6667Z" stroke="#2D2D2D" stroke-width="1.28"/>
<path d="M11.667 4.3398L11.6741 4.33203" stroke="#2D2D2D" stroke-width="1.28" stroke-linecap="round" stroke-linejoin="round"/>
</svg>
