<svg width="30" height="30" viewBox="0 0 30 30" fill="none" xmlns="http://www.w3.org/2000/svg">
<path d="M28.4375 15C28.4375 22.4125 22.4125 28.4375 15 28.4375C7.5875 28.4375 1.5625 22.4125 1.5625 15C1.5625 7.5875 7.5875 1.5625 15 1.5625C22.4125 1.5625 28.4375 7.5875 28.4375 15ZM3.4375 15C3.4375 21.375 8.625 26.5625 15 26.5625C21.375 26.5625 26.5625 21.375 26.5625 15C26.5625 8.625 21.375 3.4375 15 3.4375C8.625 3.4375 3.4375 8.625 3.4375 15Z" fill="#2D2D2D"/>
<path d="M18.7629 15.0003C18.7629 15.2378 18.6754 15.4753 18.4879 15.6628L14.0754 20.0753C13.7129 20.4378 13.1129 20.4378 12.7504 20.0753C12.3879 19.7128 12.3879 19.1128 12.7504 18.7503L16.5004 15.0003L12.7504 11.2503C12.3879 10.8878 12.3879 10.2878 12.7504 9.92531C13.1129 9.56281 13.7129 9.56281 14.0754 9.92531L18.4879 14.3378C18.6754 14.5253 18.7629 14.7628 18.7629 15.0003Z" fill="#2D2D2D"/>
</svg>
