<svg width="14" height="14" viewBox="0 0 14 14" fill="none" xmlns="http://www.w3.org/2000/svg">
<path d="M3.1703 1.51859C3.1703 2.35678 2.5592 3.03646 1.5554 3.03646C0.6104 3.03503 0 2.35678 0 1.51859C0 0.679688 0.63 0 1.596 0C2.5606 0 3.15 0.658983 3.1703 1.51859ZM0.0790999 13.9986V4.23377H3.0716V14L0.0790999 13.9986ZM4.8622 7.34877C4.8622 6.13076 4.8237 5.11265 4.7838 4.23306H7.3829L7.5215 5.59172H7.581C7.9744 4.95273 8.939 4.01387 10.5546 4.01387C12.523 4.01387 14 5.35254 14 8.22765V13.9993H11.0075V8.58749C11.0075 7.32878 10.5735 6.4706 9.4906 6.4706C8.6646 6.4706 8.1725 7.04891 7.9548 7.60865C7.8757 7.80856 7.8568 8.087 7.8568 8.36687V13.9979H4.8636V7.34734L4.8622 7.34877Z" fill="#2D2D2D"/>
</svg>
