<svg width="20" height="20" viewBox="0 0 20 20" fill="none" xmlns="http://www.w3.org/2000/svg">
<mask id="mask0_526_5138" style="mask-type:luminance" maskUnits="userSpaceOnUse" x="0" y="0" width="20" height="20">
<path d="M20 0H0V20H20V0Z" fill="white"/>
</mask>
<g mask="url(#mask0_526_5138)">
<path d="M10.0024 11.8079C8.22734 11.8079 6.77734 10.3663 6.77734 8.58292C6.77734 6.79954 8.22734 5.36621 10.0024 5.36621C11.7774 5.36621 13.2274 6.80788 13.2274 8.59125C13.2274 10.3746 11.7774 11.8079 10.0024 11.8079ZM10.0024 6.61621C8.91903 6.61621 8.02734 7.49954 8.02734 8.59125C8.02734 9.68292 8.91069 10.5663 10.0024 10.5663C11.094 10.5663 11.9774 9.68292 11.9774 8.59125C11.9774 7.49954 11.0857 6.61621 10.0024 6.61621Z" fill="#2D2D2D"/>
<path d="M10.0013 18.9665C8.76801 18.9665 7.52637 18.4998 6.5597 17.5748C4.10137 15.2082 1.3847 11.4332 2.4097 6.9415C3.3347 2.8665 6.89303 1.0415 10.0013 1.0415C10.0013 1.0415 10.0013 1.0415 10.0097 1.0415C13.118 1.0415 16.6763 2.8665 17.6013 6.94984C18.618 11.4415 15.9013 15.2082 13.443 17.5748C12.4763 18.4998 11.2347 18.9665 10.0013 18.9665ZM10.0013 2.2915C7.57637 2.2915 4.4597 3.58317 3.6347 7.2165C2.7347 11.1415 5.20137 14.5248 7.4347 16.6665C8.87634 18.0582 11.1347 18.0582 12.5763 16.6665C14.8013 14.5248 17.268 11.1415 16.3847 7.2165C15.5513 3.58317 12.4263 2.2915 10.0013 2.2915Z" fill="#2D2D2D"/>
</g>
</svg>
