<svg width="44" height="44" viewBox="0 0 44 44" fill="none" xmlns="http://www.w3.org/2000/svg">
<rect width="44" height="44" rx="10" fill="#F78584" fill-opacity="0.2"/>
<g clip-path="url(#clip0_526_5010)">
<mask id="mask0_526_5010" style="mask-type:luminance" maskUnits="userSpaceOnUse" x="10" y="10" width="24" height="24">
<path d="M34 10H10V34H34V10Z" fill="white"/>
</mask>
<g mask="url(#mask0_526_5010)">
<path d="M21.9989 24.1695C19.8689 24.1695 18.1289 22.4395 18.1289 20.2995C18.1289 18.1595 19.8689 16.4395 21.9989 16.4395C24.1289 16.4395 25.8689 18.1695 25.8689 20.3095C25.8689 22.4495 24.1289 24.1695 21.9989 24.1695ZM21.9989 17.9395C20.6989 17.9395 19.6289 18.9995 19.6289 20.3095C19.6289 21.6195 20.6889 22.6795 21.9989 22.6795C23.3089 22.6795 24.3689 21.6195 24.3689 20.3095C24.3689 18.9995 23.2989 17.9395 21.9989 17.9395Z" fill="white"/>
<path d="M21.9997 32.76C20.5197 32.76 19.0297 32.2 17.8697 31.09C14.9197 28.25 11.6597 23.72 12.8897 18.33C13.9997 13.44 18.2697 11.25 21.9997 11.25C21.9997 11.25 21.9997 11.25 22.0097 11.25C25.7397 11.25 30.0097 13.44 31.1197 18.34C32.3397 23.73 29.0797 28.25 26.1297 31.09C24.9697 32.2 23.4797 32.76 21.9997 32.76ZM21.9997 12.75C19.0897 12.75 15.3497 14.3 14.3597 18.66C13.2797 23.37 16.2397 27.43 18.9197 30C20.6497 31.67 23.3597 31.67 25.0897 30C27.7597 27.43 30.7197 23.37 29.6597 18.66C28.6597 14.3 24.9097 12.75 21.9997 12.75Z" fill="white"/>
</g>
</g>
<defs>
<clipPath id="clip0_526_5010">
<rect width="24" height="24" fill="white" transform="translate(10 10)"/>
</clipPath>
</defs>
</svg>
