<svg width="44" height="44" viewBox="0 0 44 44" fill="none" xmlns="http://www.w3.org/2000/svg">
<rect width="44" height="44" rx="10" fill="#E40714"/>
<g clip-path="url(#clip0_526_4275)">
<mask id="mask0_526_4275" style="mask-type:luminance" maskUnits="userSpaceOnUse" x="10" y="10" width="24" height="24">
<path d="M34 10H10V34H34V10Z" fill="white"/>
</mask>
<g mask="url(#mask0_526_4275)">
<path d="M15.54 29.5196C14.93 29.5196 14.36 29.3096 13.95 28.9196C13.43 28.4296 13.18 27.6896 13.27 26.8896L13.64 23.6496C13.71 23.0396 14.08 22.2296 14.51 21.7896L22.72 13.0996C24.77 10.9296 26.91 10.8696 29.08 12.9196C31.25 14.9696 31.31 17.1096 29.26 19.2796L21.05 27.9696C20.63 28.4196 19.85 28.8396 19.24 28.9396L16.02 29.4896C15.85 29.4996 15.7 29.5196 15.54 29.5196ZM25.93 12.9096C25.16 12.9096 24.49 13.3896 23.81 14.1096L15.6 22.8096C15.4 23.0196 15.17 23.5196 15.13 23.8096L14.76 27.0496C14.72 27.3796 14.8 27.6496 14.98 27.8196C15.16 27.9896 15.43 28.0496 15.76 27.9996L18.98 27.4496C19.27 27.3996 19.75 27.1396 19.95 26.9296L28.16 18.2396C29.4 16.9196 29.85 15.6996 28.04 13.9996C27.24 13.2296 26.55 12.9096 25.93 12.9096Z" fill="white"/>
<path d="M27.3395 20.9508C27.3195 20.9508 27.2895 20.9508 27.2695 20.9508C24.1495 20.6408 21.6395 18.2708 21.1595 15.1708C21.0995 14.7608 21.3795 14.3808 21.7895 14.3108C22.1995 14.2508 22.5795 14.5308 22.6495 14.9408C23.0295 17.3608 24.9895 19.2208 27.4295 19.4608C27.8395 19.5008 28.1395 19.8708 28.0995 20.2808C28.0495 20.6608 27.7195 20.9508 27.3395 20.9508Z" fill="white"/>
<path d="M31 32.75H13C12.59 32.75 12.25 32.41 12.25 32C12.25 31.59 12.59 31.25 13 31.25H31C31.41 31.25 31.75 31.59 31.75 32C31.75 32.41 31.41 32.75 31 32.75Z" fill="white"/>
</g>
</g>
<defs>
<clipPath id="clip0_526_4275">
<rect width="24" height="24" fill="white" transform="translate(10 10)"/>
</clipPath>
</defs>
</svg>
