<svg width="43" height="34" viewBox="0 0 43 34" fill="none" xmlns="http://www.w3.org/2000/svg">
<path d="M32.2555 7.62939e-06C34.2182 7.62939e-06 35.8395 0.384008 37.1195 1.15201C38.3995 1.92001 39.4662 2.94401 40.3195 4.22401C41.2582 5.58935 41.8555 7.12534 42.1115 8.83201C42.4529 10.5387 42.6235 12.0747 42.6235 13.44C42.6235 17.6213 41.5569 21.4613 39.4235 24.96C37.2902 28.4587 33.9622 31.2747 29.4395 33.408L28.2875 31.104C30.8475 29.9947 33.0662 28.288 34.9435 25.984C36.8209 23.68 37.8449 21.3333 38.0155 18.944C38.1009 17.664 38.0155 16.4693 37.7595 15.36C36.2235 16.8107 34.3462 17.536 32.1275 17.536C29.6529 17.536 27.5622 16.768 25.8555 15.232C24.1489 13.696 23.2955 11.5627 23.2955 8.83201C23.2955 6.18668 24.1489 4.05335 25.8555 2.43201C27.6475 0.810677 29.7809 7.62939e-06 32.2555 7.62939e-06ZM8.95954 7.62939e-06C10.9222 7.62939e-06 12.5435 0.384008 13.8235 1.15201C15.1035 1.92001 16.1702 2.94401 17.0235 4.22401C17.9622 5.58935 18.5595 7.12534 18.8155 8.83201C19.1569 10.5387 19.3275 12.0747 19.3275 13.44C19.3275 17.6213 18.2609 21.4613 16.1275 24.96C13.9942 28.4587 10.6662 31.2747 6.14354 33.408L4.99154 31.104C7.55154 29.9947 9.77021 28.288 11.6475 25.984C13.5249 23.68 14.5489 21.3333 14.7195 18.944C14.8049 17.664 14.7195 16.4693 14.4635 15.36C12.9275 16.8107 11.0502 17.536 8.83154 17.536C6.35687 17.536 4.26621 16.768 2.55954 15.232C0.852873 13.696 -0.000460625 11.5627 -0.000460625 8.83201C-0.000460625 6.18668 0.852873 4.05335 2.55954 2.43201C4.35154 0.810677 6.48487 7.62939e-06 8.95954 7.62939e-06Z" fill="#E40714"/>
</svg>
