<svg width="20" height="20" viewBox="0 0 20 20" fill="none" xmlns="http://www.w3.org/2000/svg">
<g clip-path="url(#clip0_546_5927)">
<mask id="mask0_546_5927" style="mask-type:luminance" maskUnits="userSpaceOnUse" x="0" y="0" width="20" height="20">
<path d="M20 0H0V20H20V0Z" fill="white"/>
</mask>
<g mask="url(#mask0_546_5927)">
<path d="M11.4411 2.86074L12.9078 5.79408C13.1078 6.20241 13.6411 6.59408 14.0911 6.66908L16.7494 7.11073C18.4494 7.39407 18.8494 8.62738 17.6244 9.84405L15.5578 11.9107C15.2078 12.2607 15.0161 12.9357 15.1244 13.4191L15.7161 15.9774C16.1828 18.0024 15.1078 18.7857 13.3161 17.7274L10.8244 16.2524C10.3744 15.9857 9.63276 15.9857 9.17443 16.2524L6.68277 17.7274C4.89944 18.7857 3.8161 17.9941 4.28277 15.9774L4.87444 13.4191C4.98277 12.9357 4.7911 12.2607 4.4411 11.9107L2.37444 9.84405C1.15777 8.62738 1.54944 7.39407 3.24944 7.11073L5.90777 6.66908C6.34944 6.59408 6.88277 6.20241 7.08277 5.79408L8.54943 2.86074C9.34943 1.26908 10.6494 1.26908 11.4411 2.86074Z" fill="#E40714"/>
</g>
</g>
<defs>
<clipPath id="clip0_546_5927">
<rect width="20" height="20" fill="white"/>
</clipPath>
</defs>
</svg>
