<svg width="15" height="12" viewBox="0 0 15 12" fill="none" xmlns="http://www.w3.org/2000/svg">
<path d="M7.5 0C8.14157 0 8.79872 0.016814 9.43625 0.0433252L10.1896 0.0793376L10.9106 0.121927L11.5857 0.168359L12.2014 0.215902C13.5799 0.327765 14.6877 1.39456 14.8225 2.78332L14.8523 3.10172L14.9086 3.78418C14.9612 4.4916 15 5.263 15 6C15 6.737 14.9612 7.5084 14.9086 8.21582L14.8523 8.89827C14.8425 9.00725 14.8325 9.11353 14.8225 9.21667C14.6877 10.6054 13.5799 11.6722 12.2014 11.7841L11.5857 11.8316L10.9106 11.878L10.1896 11.9206L9.43625 11.9567C8.79872 11.9832 8.14157 12 7.5 12C6.85844 12 6.20129 11.9832 5.56376 11.9567L4.81039 11.9206L4.0894 11.878L3.4143 11.8316L2.79862 11.7841C1.42013 11.6722 0.3123 10.6054 0.17751 9.21667L0.147691 8.89827L0.0914422 8.21582C0.0388467 7.5084 0 6.737 0 6C0 5.263 0.0388467 4.4916 0.0914422 3.78418L0.147691 3.10172C0.15752 2.99275 0.167498 2.88646 0.17751 2.78332C0.3123 1.39456 1.42013 0.327765 2.79862 0.215902L3.4143 0.168359L4.0894 0.121927L4.81039 0.0793376L5.56375 0.0433252C6.20128 0.016814 6.85844 0 7.5 0ZM7.5 1.5C6.88098 1.5 6.24445 1.51629 5.62475 1.54208L4.89137 1.57715L4.18733 1.61873L3.52579 1.66421L2.91995 1.71098C2.25297 1.76511 1.73395 2.27437 1.67049 2.92823C1.58251 3.83466 1.5 4.96357 1.5 6C1.5 7.03642 1.58251 8.16532 1.67049 9.07177C1.73395 9.72562 2.25297 10.2349 2.91995 10.289L3.52579 10.3358L4.18733 10.3813L4.89137 10.4229L5.62475 10.4579C6.24445 10.4837 6.88098 10.5 7.5 10.5C8.11901 10.5 8.75554 10.4837 9.37524 10.4579L10.1086 10.4229L10.8127 10.3813L11.4742 10.3358L12.08 10.289C12.747 10.2349 13.2661 9.72562 13.3295 9.07177C13.4175 8.16532 13.5 7.03642 13.5 6C13.5 4.96357 13.4175 3.83466 13.3295 2.92823C13.2661 2.27437 12.747 1.76511 12.08 1.71098L11.4742 1.66421L10.8127 1.61873L10.1086 1.57715L9.37524 1.54208C8.75554 1.51629 8.11901 1.5 7.5 1.5ZM6 4.18135C6 3.85803 6.32667 3.64787 6.61413 3.76211L6.675 3.79163L9.825 5.6103C10.1019 5.77015 10.1232 6.15144 9.8889 6.34536L9.825 6.3897L6.675 8.20837C6.395 8.37 6.04967 8.19223 6.00487 7.88615L6 7.81867V4.18135Z" fill="#2D2D2D"/>
</svg>
