<svg width="163" height="203" viewBox="0 0 163 203" fill="none" xmlns="http://www.w3.org/2000/svg">
<g opacity="0.3">
<mask id="mask0_526_4405" style="mask-type:luminance" maskUnits="userSpaceOnUse" x="0" y="-3" width="200" height="206">
<path d="M198.5 -0.542969V200.721H1.5V-0.542969H198.5Z" fill="white" stroke="white" stroke-width="3"/>
</mask>
<g mask="url(#mask0_526_4405)">
<path d="M161.584 104.685L153.167 106.642C147.167 108.089 142.417 112.855 141.084 118.983L139.167 127.579C139.001 128.515 137.667 128.515 137.501 127.579L135.584 118.983C134.167 112.855 129.501 108.004 123.501 106.642L115.084 104.685C114.167 104.514 114.167 103.153 115.084 102.982L123.501 101.025C129.501 99.578 134.251 94.8119 135.584 88.684L137.501 80.0879C137.667 79.1517 139.001 79.1517 139.167 80.0879L141.084 88.684C142.501 94.8119 147.167 99.6632 153.167 101.025L161.584 102.982C162.501 103.153 162.501 104.514 161.584 104.685Z" stroke="white" stroke-width="3" stroke-miterlimit="10"/>
<path d="M112.249 126.814C108.333 127.92 104.249 128.516 99.9993 128.516C74.416 128.516 53.666 107.324 53.666 81.1949V24.4267C53.666 19.235 57.8327 14.9795 62.916 14.9795H137.083C142.166 14.9795 146.333 19.235 146.333 24.4267V58.2153" stroke="white" stroke-width="3" stroke-linecap="round" stroke-linejoin="round"/>
<path d="M57.5833 100.089H53.75C33.3333 100.089 16.75 83.1526 16.75 62.3006V43.4062C16.75 38.2145 20.9167 33.959 26 33.959H53.75" stroke="white" stroke-width="3" stroke-linecap="round" stroke-linejoin="round"/>
<path opacity="0.4" d="M175.083 85.9613C180.167 79.4927 183.25 71.2371 183.25 62.3006V43.4062C183.25 38.2145 179.083 33.959 174 33.959H146.25" stroke="white" stroke-width="3" stroke-linecap="round" stroke-linejoin="round"/>
<path d="M133.917 156.856H66.0843C62.0843 156.856 58.5843 159.495 57.3343 163.325L54.251 172.772C53.3343 175.666 53.751 178.815 55.501 181.283C57.251 183.751 60.001 185.198 63.001 185.198H137.084C140.084 185.198 142.834 183.751 144.584 181.283C146.334 178.815 146.834 175.666 145.834 172.772L142.751 163.325C141.501 159.495 137.917 156.856 134.001 156.856H133.917Z" stroke="white" stroke-width="3" stroke-linecap="round" stroke-linejoin="round"/>
<path opacity="0.4" d="M100 128.432V156.773" stroke="white" stroke-width="3" stroke-linecap="round" stroke-linejoin="round"/>
</g>
</g>
</svg>
