<svg width="213" height="267" viewBox="0 0 213 267" fill="none" xmlns="http://www.w3.org/2000/svg">
<g opacity="0.5" clip-path="url(#clip0_526_4263)">
<g opacity="0.6">
<mask id="mask0_526_4263" style="mask-type:luminance" maskUnits="userSpaceOnUse" x="-140" y="-87" width="353" height="354">
<path d="M23.1599 -86.2142L212.807 76.6787L49.9137 266.325L-139.733 103.433L23.1599 -86.2142Z" fill="white"/>
</mask>
<g mask="url(#mask0_526_4263)">
<path d="M-77.7791 63.2771C-83.8876 70.3888 -87.6805 78.8015 -89.0114 87.5451C-91.887 104.162 -86.2567 121.907 -72.4283 133.785C-58.5999 145.663 -40.1293 148.618 -24.2155 143.2C-15.8518 140.497 -8.02886 135.546 -1.92037 128.434C16.0657 107.494 13.669 75.9124 -7.27116 57.9263C-28.2113 39.9402 -59.793 42.3369 -77.7791 63.2771Z" stroke="white" stroke-width="4" stroke-miterlimit="10" stroke-linecap="round" stroke-linejoin="round"/>
<path d="M-20.0148 -3.97432C-33.3853 11.5922 -41.1651 28.8031 -45.0922 46.1648C-31.8264 44.7887 -18.0921 48.6225 -7.2664 57.921C13.6738 75.9071 16.0711 107.488 -1.91495 128.428C-10.2632 138.148 -21.5795 143.809 -33.3541 145.367C-31.5842 149.221 -29.8471 152.635 -28.1552 155.461C-26.283 158.717 -21.8579 162.518 -18.3568 163.877C11.2782 175.737 90.514 187.083 138.024 131.77C158.997 107.353 156.289 70.6975 132.03 49.8608C117.727 37.576 98.9533 33.5347 81.8096 37.3473C82.9914 19.8246 76.1632 1.87525 61.8607 -10.4096C37.6017 -31.2463 0.957652 -28.3913 -20.0148 -3.97432Z" stroke="white" stroke-width="4" stroke-linecap="round" stroke-linejoin="round"/>
</g>
</g>
</g>
<defs>
<clipPath id="clip0_526_4263">
<rect width="250" height="250" fill="white" transform="matrix(-0.758587 -0.651572 -0.651572 0.758587 212.807 76.6787)"/>
</clipPath>
</defs>
</svg>
