<svg width="114" height="103" viewBox="0 0 114 103" fill="none" xmlns="http://www.w3.org/2000/svg">
<path opacity="0.5" d="M58.1334 9.72303L60.3748 13.7343L61.6013 15.0965L63.3121 15.4746L66.4906 12.6127C66.8714 12.0365 66.8718 11.4987 66.2705 9.93315L60.8349 6.33136L60.695 6.93694M58.1334 9.72303L60.695 6.93694M58.1334 9.72303L57.6564 9.19328C53.3144 4.39956 50.718 2.65954 45.3021 4.14728C37.966 8.78643 34.0384 11.9617 27.5023 19.078L17.9448 30.8353M60.695 6.93694C54.4604 0.445885 50.6611 -0.369958 43.4623 2.10397C35.4418 6.72919 31.5381 9.99165 25.5262 16.8833L14.8939 28.5122M14.8939 28.5122L17.9448 30.8353M14.8939 28.5122L9.0368 35.7044M17.9448 30.8353L9.52368 41.724M9.0368 35.7044L9.52368 41.724M9.0368 35.7044L5.28364 41.2763M47.3613 73.5502L54.0665 68.0609L53.5895 67.5311M47.3613 73.5502L41.3974 73.0277M47.3613 73.5502L42.7675 77.2753M41.3974 73.0277L38.6109 72.6589C31.9946 77.1672 28.2646 78.0419 21.5809 77.0303C14.372 74.2836 11.1012 71.7006 7.47628 64.105C5.70139 54.9604 6.26519 50.7921 9.78065 44.901L9.52368 41.724M41.3974 73.0277L42.0852 72.4084L50.8639 64.504L51.409 65.1094M41.3974 73.0277L39.9662 74.3163M9.52368 41.724L8.08579 43.0187M5.28364 41.2763L8.08579 43.0187M5.28364 41.2763L4.73852 40.6709L-1.90373 52.0133C-5.55346 68.4349 -3.87703 73.6363 0.130402 81.8189C-5.15466 93.5735 -2.83402 99.7796 6.34367 110.483C16.8433 118.722 24.364 121.053 42.1637 119.066C53.9204 116.545 60.5799 112.753 72.5135 104.072L78.7948 98.416C80.3839 97.5687 81.3095 96.9351 82.9724 95.7507L86.4536 92.6162L85.4315 91.481L91.6601 86.8321L88.3212 83.1238L83.6291 87.3486M8.08579 43.0187L9.09923 44.1442L2.02439 55.3106C-0.528376 62.0181 -0.706893 65.5088 1.40726 71.2139C3.28767 78.7537 6.61262 81.0254 14.8455 83.0948C20.9788 83.585 24.6254 83.1553 31.8909 79.8059L39.9662 74.3163M42.7675 77.2753L39.9662 74.3163M42.7675 77.2753C37.3984 82.385 34.2663 84.2142 28.4785 85.7562C19.0623 89.0003 13.6502 87.8287 4.01444 86.1325C0.21684 95.4526 2.53481 99.9194 9.82487 107.348C18.4198 114.723 24.8937 116.057 38.4841 114.979C51.1159 113.485 57.8517 109.775 69.5834 100.818L74.9261 95.1848L78.3389 90.6046L81.8201 87.4701L82.5696 88.3025L83.6291 87.3486M53.5895 67.5311L68.1194 53.078C75.2311 45.1726 77.6227 41.3932 79.9313 35.4539C81.5292 30.6259 80.8504 28.3756 78.0365 24.827L73.9252 19.3477M53.5895 67.5311L51.409 65.1094M73.9252 19.3477C72.2006 20.3729 71.4014 21.0227 71.2237 22.7394M73.9252 19.3477C72.4836 16.5399 71.6113 15.1802 69.7456 13.7927C67.1135 13.8402 65.8757 14.2545 65.3563 17.7449C65.0222 18.932 65.3445 19.6157 66.8482 20.9237L71.2237 22.7394M71.2237 22.7394C74.1962 24.18 75.6382 26.2394 77.8943 31.6697C76.484 38.8347 72.9042 43.6816 66.0752 50.8077L51.409 65.1094M86.968 91.0568C92.7424 94.117 95.9154 94.8052 101.411 93.4001C108.008 90.5448 110.396 88.0586 112.248 81.9982C113.401 76.7512 112.927 74.0844 110.731 69.6605C106.482 64.3986 103.978 62.9446 99.3828 61.9272C94.2453 61.6439 91.5186 62.3659 86.9471 65.3134C83.1891 69.2067 81.7654 71.7584 80.9852 77.2592C80.8123 81.8955 81.5456 84.0154 83.6291 87.3486M102.421 72.7582C105.419 76.427 105.274 78.6422 102.688 82.7951C98.4534 86.0617 96.0126 86.2836 91.5383 83.653C88.6647 78.4321 88.9903 76.0534 91.6947 72.4124C96.0564 69.4652 98.392 69.7712 102.421 72.7582ZM104.259 70.6914C107.688 76.2276 107.715 79.2931 104.459 84.7628C97.4139 89.0789 94.3832 88.9952 90.5544 84.5388C86.2857 78.5401 86.7511 75.7126 89.8172 71.0882C95.412 67.6505 98.5601 66.5555 104.259 70.6914Z" stroke="#E40714" stroke-width="1.62936"/>
</svg>
