<svg width="197" height="155" viewBox="0 0 197 155" fill="none" xmlns="http://www.w3.org/2000/svg">
<path d="M-72.8605 154.83C-76.0609 164.712 -76.338 174.933 -73.9572 184.439C-69.7863 202.653 -56.4394 218.38 -37.224 224.603C-18.0086 230.826 2.13413 225.944 16.0807 213.597C23.4722 207.256 29.3493 198.849 32.5497 188.967C41.9729 159.869 26.0107 128.616 -3.08694 119.193C-32.1845 109.77 -63.4373 125.732 -72.8605 154.83Z" stroke="#E40714" stroke-opacity="0.6" stroke-width="4" stroke-miterlimit="10" stroke-linecap="round" stroke-linejoin="round"/>
<path d="M0.380168 178.537L-16.7725 187.298L-36.4899 152.282" stroke="#E40714" stroke-opacity="0.6" stroke-width="4" stroke-linecap="round" stroke-linejoin="round"/>
<path d="M-42.5966 61.3799C-49.6017 83.0105 -50.1891 103.93 -46.7744 123.355C-33.8047 116.272 -18.1272 114.314 -3.08427 119.186C26.0133 128.609 41.9759 159.861 32.5527 188.958C28.1789 202.464 19.0351 213.092 7.66762 219.722C11.1258 222.905 14.3616 225.65 17.3001 227.815C20.6066 230.341 26.7556 232.332 30.9156 232.224C66.2786 231.666 152.116 209.36 177.008 132.499C187.996 98.5698 169.545 62.2646 135.836 51.3479C115.961 44.9116 95.0441 48.814 79.1536 60.0458C72.8641 41.631 58.2055 26.2074 38.3313 19.7711C4.62197 8.85438 -31.6087 27.451 -42.5966 61.3799Z" stroke="#E40714" stroke-opacity="0.6" stroke-width="4" stroke-linecap="round" stroke-linejoin="round"/>
</svg>
