<svg width="194" height="243" viewBox="0 0 194 243" fill="none" xmlns="http://www.w3.org/2000/svg">
<path d="M269.746 119.042C272.947 128.924 273.224 139.145 270.843 148.651C266.672 166.865 253.325 182.592 234.11 188.815C214.894 195.038 194.752 190.156 180.805 177.81C173.413 171.468 167.536 163.061 164.336 153.179C154.913 124.081 170.875 92.8284 199.973 83.4051C229.07 73.9819 260.323 89.9441 269.746 119.042Z" fill="white" fill-opacity="0.01" stroke="#E40714" stroke-opacity="0.6" stroke-width="4" stroke-miterlimit="10" stroke-linecap="round" stroke-linejoin="round"/>
<path d="M196.506 142.75L213.658 151.51L233.376 116.494" fill="white" fill-opacity="0.01"/>
<path d="M196.506 142.75L213.658 151.51L233.376 116.494" stroke="#E40714" stroke-opacity="0.6" stroke-width="4" stroke-linecap="round" stroke-linejoin="round"/>
<path d="M239.482 25.592C246.487 47.2227 247.075 68.1418 243.66 87.5667C230.69 80.4843 215.013 78.5262 199.97 83.3979C170.872 92.8211 154.91 124.073 164.333 153.17C168.707 166.676 177.851 177.304 189.218 183.934C185.76 187.117 182.524 189.862 179.586 192.027C176.279 194.553 170.13 196.545 165.97 196.436C130.607 195.878 44.7692 173.572 19.8778 96.7109C8.88996 62.7819 27.3408 26.4768 61.0501 15.56C80.9243 9.12378 101.842 13.0262 117.732 24.258C124.022 5.84319 138.68 -9.58047 158.554 -16.0167C192.264 -26.9335 228.494 -8.33685 239.482 25.592Z" fill="white" fill-opacity="0.01" stroke="#E40714" stroke-opacity="0.6" stroke-width="4" stroke-linecap="round" stroke-linejoin="round"/>
</svg>
