<svg width="108" height="85" viewBox="0 0 108 85" fill="none" xmlns="http://www.w3.org/2000/svg">
<path opacity="0.5" d="M57.4384 -17.4698L59.4976 -13.7746L60.6254 -12.5193L62.1999 -12.1694L65.129 -14.8008C65.4802 -15.3308 65.4811 -15.8259 64.9292 -17.2678L59.9289 -20.5893L59.7995 -20.032M57.4384 -17.4698L59.7995 -20.032M57.4384 -17.4698L56.9998 -17.958C53.0076 -22.3756 50.6191 -23.9802 45.6317 -22.6163C38.8732 -18.3531 35.2541 -15.4341 29.2295 -8.88963L20.4185 1.92422M59.7995 -20.032C54.0667 -26.0142 50.57 -26.7693 43.9401 -24.4993C36.5516 -20.2497 32.9543 -17.2503 27.4126 -10.9121L17.6122 -0.217644M17.6122 -0.217644L20.4185 1.92422M17.6122 -0.217644L12.2126 6.39738M20.4185 1.92422L12.6545 11.9396M12.2126 6.39738L12.6545 11.9396M12.2126 6.39738L8.75159 11.5229M47.4547 41.2785L53.6333 36.2321L53.1947 35.7439M47.4547 41.2785L41.9648 40.7912M47.4547 41.2785L43.2217 44.7031M41.9648 40.7912L39.4 40.4489C33.3043 44.5923 29.8695 45.3937 23.7174 44.4553C17.0838 41.9191 14.0754 39.5378 10.7462 32.5414C9.12184 24.121 9.64524 20.2843 12.8878 14.8646L12.6545 11.9396M41.9648 40.7912L42.5987 40.2218L50.6886 32.9543L51.1899 33.5122M41.9648 40.7912L40.6459 41.9761M12.6545 11.9396L11.3294 13.1299M8.75159 11.5229L11.3294 13.1299M8.75159 11.5229L8.25038 10.965L2.12361 21.4C-1.25355 36.514 0.284326 41.3041 3.96502 48.8412C-0.912752 59.657 1.21714 65.3729 9.65495 75.2357C19.3123 82.832 26.2335 84.9855 42.6221 83.175C53.4479 80.867 59.5828 77.3829 70.5779 69.4032L76.3664 64.2031C77.8303 63.4247 78.6831 62.8424 80.2152 61.7537L83.4233 58.8718L82.4835 57.8256L88.2224 53.5523L85.1525 50.135L80.8285 54.0194M11.3294 13.1299L12.2612 14.1672L5.7364 24.4396C3.37929 30.6118 3.21129 33.8252 5.15161 39.0796C6.87483 46.0228 9.93341 48.1176 17.5105 50.0313C23.1563 50.489 26.5138 50.0972 33.206 47.0214L40.6459 41.9761M43.2217 44.7031L40.6459 41.9761M43.2217 44.7031C38.2735 49.4015 35.3882 51.0822 30.0583 52.4956C21.3863 55.4723 16.4051 54.3881 7.53616 52.8165C4.03031 61.3926 6.15956 65.5072 12.863 72.3537C20.7679 79.1523 26.7264 80.3872 39.2389 79.409C50.8694 78.0468 57.0742 74.6381 67.8839 66.4043L72.8083 61.2243L75.9549 57.0113L79.163 54.1294L79.8522 54.8965L80.8285 54.0194M53.1947 35.7439L66.5862 22.4535C73.1415 15.1831 75.3472 11.7064 77.4786 6.24107C78.9547 1.798 78.3322 -0.274354 75.7455 -3.54413L71.9663 -8.5927M53.1947 35.7439L51.1899 33.5122M71.9663 -8.5927C70.3776 -7.65067 69.6411 -7.05332 69.4757 -5.47314M71.9663 -8.5927C70.6421 -11.1791 69.8405 -12.4317 68.1244 -13.711C65.7012 -13.6701 64.5612 -13.2899 64.0794 -10.0772C63.7706 -8.98475 64.0666 -8.35493 65.4495 -7.14924L69.4757 -5.47314M69.4757 -5.47314C72.2107 -4.14378 73.5361 -2.24638 75.6073 2.75516C74.3015 9.34981 71.0009 13.8081 64.7066 20.3613L51.1899 33.5122M83.8985 57.4367C89.2112 60.26 92.1315 60.8969 97.1922 59.6091C103.269 56.9874 105.469 54.7011 107.18 49.1238C108.247 44.2946 107.815 41.8391 105.797 37.7641C101.891 32.9155 99.5873 31.5743 95.3581 30.6328C90.6288 30.3666 88.1178 31.0285 83.9062 33.7372C80.4425 37.3175 79.1291 39.6651 78.4051 44.7283C78.241 48.9963 78.914 50.9487 80.8285 54.0194M98.1433 40.6071C100.899 43.9878 100.764 46.0269 98.3788 49.8474C94.4772 52.8503 92.23 53.0519 88.1136 50.6255C85.4737 45.8161 85.7759 43.6267 88.2694 40.2776C92.2879 37.5689 94.4378 37.853 98.1433 40.6071ZM99.8384 38.7063C102.989 43.8066 103.011 46.6288 100.008 51.6607C93.5171 55.6267 90.727 55.5466 87.207 51.4399C83.2835 45.9131 83.7149 43.3106 86.5424 39.0565C91.6965 35.8976 94.5959 34.8928 99.8384 38.7063Z" stroke="white" stroke-width="0.5"/>
</svg>
