<svg width="107" height="74" viewBox="0 0 107 74" fill="none" xmlns="http://www.w3.org/2000/svg">
<path opacity="0.5" d="M50.5577 8.45991L48.4985 12.155L47.3707 13.4104L45.7962 13.7602L42.8671 11.1289C42.5159 10.5989 42.515 10.1038 43.0669 8.66188L48.0672 5.34036L48.1966 5.89771M50.5577 8.45991L48.1966 5.89771M50.5577 8.45991L50.9963 7.97173C54.9885 3.55406 57.377 1.94946 62.3644 3.31341C69.1229 7.57654 72.742 10.4956 78.7666 17.0401L87.5776 27.8539M48.1966 5.89771C53.9293 -0.0845174 57.4261 -0.839567 64.056 1.4304C71.4445 5.67999 75.0418 8.67935 80.5835 15.0176L90.3839 25.712M90.3839 25.712L87.5776 27.8539M90.3839 25.712L95.7835 32.3271M87.5776 27.8539L95.3416 37.8692M95.7835 32.3271L95.3416 37.8692M95.7835 32.3271L99.2445 37.4526M60.5414 67.2082L54.3628 62.1618L54.8014 61.6736M60.5414 67.2082L66.0313 66.7209M60.5414 67.2082L64.7744 70.6328M66.0313 66.7209L68.5961 66.3786C74.6918 70.522 78.1266 71.3233 84.2787 70.385C90.9123 67.8488 93.9207 65.4675 97.2499 58.4711C98.8743 50.0507 98.3509 46.214 95.1083 40.7943L95.3416 37.8692M66.0313 66.7209L65.3974 66.1515L57.3075 58.8839L56.8062 59.4419M66.0313 66.7209L67.3502 67.9058M95.3416 37.8692L96.6667 39.0596M99.2445 37.4526L96.6667 39.0596M99.2445 37.4526L99.7457 36.8947L105.872 47.3296C109.25 62.4436 107.712 67.2338 104.031 74.7709C108.909 85.5867 106.779 91.3026 98.3411 101.165C88.6838 108.762 81.7626 110.915 65.374 109.105C54.5482 106.797 48.4133 103.313 37.4182 95.3329L31.6297 90.1328C30.1658 89.3543 29.313 88.7721 27.7809 87.6834L24.5728 84.8014L25.5126 83.7553L19.7737 79.482L22.8436 76.0647L27.1676 79.9491M96.6667 39.0596L95.7349 40.0969L102.26 50.3693C104.617 56.5415 104.785 59.7549 102.844 65.0093C101.121 71.9525 98.0627 74.0473 90.4856 75.961C84.8398 76.4187 81.4823 76.0269 74.7901 72.9511L67.3502 67.9058M64.7744 70.6328L67.3502 67.9058M64.7744 70.6328C69.7225 75.3311 72.6079 77.0119 77.9378 78.4253C86.6098 81.402 91.591 80.3178 100.46 78.7462C103.966 87.3223 101.837 91.4369 95.1331 98.2834C87.2282 105.082 81.2697 106.317 68.7572 105.339C57.1267 103.976 50.9219 100.568 40.1122 92.334L35.1878 87.154L32.0412 82.941L28.8331 80.059L28.1439 80.8262L27.1676 79.9491M54.8014 61.6736L41.4099 48.3832C34.8546 41.1128 32.6489 37.6361 30.5174 32.1708C29.0413 27.7277 29.6638 25.6553 32.2506 22.3856L36.0298 17.337M54.8014 61.6736L56.8062 59.4419M36.0298 17.337C37.6185 18.279 38.355 18.8764 38.5204 20.4565M36.0298 17.337C37.354 14.7506 38.1556 13.498 39.8717 12.2187C42.2949 12.2596 43.4349 12.6397 43.9167 15.8525C44.2254 16.9449 43.9295 17.5748 42.5466 18.7804L38.5204 20.4565M38.5204 20.4565C35.7854 21.7859 34.46 23.6833 32.3888 28.6848C33.6946 35.2795 36.9952 39.7378 43.2895 46.291L56.8062 59.4419M24.0976 83.3664C18.7849 86.1896 15.8645 86.8266 10.8039 85.5387C4.72755 82.9171 2.52668 80.6308 0.815607 75.0535C-0.251394 70.2243 0.181498 67.7688 2.19889 63.6938C6.10488 58.8451 8.40882 57.504 12.638 56.5625C17.3673 56.2963 19.8783 56.9582 24.0899 59.6669C27.5536 63.2471 28.867 65.5947 29.591 70.658C29.755 74.926 29.0821 76.8784 27.1676 79.9491M9.85278 66.5368C7.09664 69.9175 7.23206 71.9566 9.61734 75.7771C13.5188 78.7799 15.7661 78.9816 19.8825 76.5552C22.5224 71.7458 22.2202 69.5563 19.7267 66.2073C15.7082 63.4986 13.5583 63.7827 9.85278 66.5368ZM8.15772 64.636C5.00743 69.7363 4.9854 72.5584 7.9884 77.5904C14.479 81.5564 17.269 81.4763 20.7891 77.3696C24.7126 71.8428 24.2812 69.2403 21.4537 64.9862C16.2995 61.8273 13.4002 60.8225 8.15772 64.636Z" stroke="white" stroke-width="0.5"/>
</svg>
